<svg width="28" height="28" viewBox="0 0 28 28" fill="none" xmlns="http://www.w3.org/2000/svg">
<path d="M15.4758 25.0521H12.145C11.9241 25.0521 11.7123 25.1398 11.5562 25.296C11.4 25.4522 11.3123 25.664 11.3123 25.8848C11.3123 26.1057 11.4 26.3175 11.5562 26.4736C11.7123 26.6298 11.9241 26.7175 12.145 26.7175H15.4758C15.6967 26.7175 15.9085 26.6298 16.0647 26.4736C16.2208 26.3175 16.3085 26.1057 16.3085 25.8848C16.3085 25.664 16.2208 25.4522 16.0647 25.296C15.9085 25.1398 15.6967 25.0521 15.4758 25.0521ZM16.3085 22.554H11.3123C11.0914 22.554 10.8796 22.6417 10.7234 22.7978C10.5673 22.954 10.4796 23.1658 10.4796 23.3867C10.4796 23.6075 10.5673 23.8193 10.7234 23.9755C10.8796 24.1316 11.0914 24.2194 11.3123 24.2194H16.3085C16.5294 24.2194 16.7412 24.1316 16.8974 23.9755C17.0535 23.8193 17.1413 23.6075 17.1413 23.3867C17.1413 23.1658 17.0535 22.954 16.8974 22.7978C16.7412 22.6417 16.5294 22.554 16.3085 22.554ZM19.7133 4.16607C18.1483 2.59901 16.052 1.73611 13.8104 1.73611C12.7161 1.7335 11.6321 1.94711 10.6207 2.36466C9.60919 2.78221 8.69018 3.39549 7.91642 4.16925C7.14265 4.94302 6.52938 5.86203 6.11182 6.8735C5.69427 7.88498 5.48066 8.96898 5.48327 10.0632C5.48327 12.4896 6.41331 14.7592 8.03346 16.2899L8.26037 16.5027C9.19769 17.3792 10.4796 18.5798 10.4796 19.6395V20.8885C10.4796 21.1094 10.5673 21.3212 10.7234 21.4773C10.8796 21.6335 11.0914 21.7212 11.3123 21.7212H12.5613C12.6718 21.7212 12.7777 21.6774 12.8557 21.5993C12.9338 21.5212 12.9777 21.4153 12.9777 21.3049V15.2063C12.9777 15.1221 12.9522 15.0399 12.9046 14.9705C12.8569 14.9011 12.7893 14.8477 12.7107 14.8175C12.2299 14.6213 11.7731 14.3708 11.3492 14.0707C11.254 14.0099 11.1721 13.9303 11.1086 13.8368C11.0451 13.7433 11.0013 13.6379 10.9798 13.5269C10.9584 13.416 10.9597 13.3018 10.9838 13.1914C11.0079 13.081 11.0542 12.9766 11.1199 12.8847C11.1856 12.7928 11.2693 12.7151 11.366 12.6566C11.4626 12.5981 11.5702 12.5598 11.6821 12.5442C11.7941 12.5285 11.908 12.5358 12.017 12.5656C12.126 12.5954 12.2278 12.6471 12.3162 12.7175C12.7013 12.9902 13.443 13.3941 13.8104 13.3941C14.1778 13.3941 14.9195 12.9892 15.3056 12.7175C15.4855 12.6045 15.7017 12.5644 15.91 12.6055C16.1184 12.6466 16.3032 12.7658 16.4266 12.9387C16.55 13.1115 16.6027 13.325 16.5739 13.5355C16.5451 13.7459 16.4369 13.9373 16.2716 14.0707C15.8477 14.3702 15.3909 14.6203 14.9101 14.816C14.8315 14.8462 14.7639 14.8995 14.7163 14.9689C14.6686 15.0383 14.6431 15.1205 14.6431 15.2047V21.3049C14.6431 21.4153 14.687 21.5212 14.7651 21.5993C14.8432 21.6774 14.9491 21.7212 15.0595 21.7212H16.3085C16.5294 21.7212 16.7412 21.6335 16.8974 21.4773C17.0535 21.3212 17.1413 21.1094 17.1413 20.8885V19.6395C17.1413 18.6048 18.4091 17.4052 19.3349 16.5287L19.5905 16.2862C21.2569 14.6952 22.1375 12.5411 22.1375 10.0632C22.1431 8.96887 21.9317 7.88426 21.5156 6.87206C21.0995 5.85987 20.4869 4.94016 19.7133 4.16607Z" fill="white"/>
</svg>
