<svg width="22" height="25" viewBox="0 0 22 25" fill="none" xmlns="http://www.w3.org/2000/svg">
<path d="M10.8253 12.513C11.9781 12.513 13.1051 12.1711 14.0637 11.5306C15.0223 10.8901 15.7694 9.97975 16.2106 8.91464C16.6518 7.84953 16.7672 6.67751 16.5423 5.5468C16.3174 4.41608 15.7622 3.37746 14.947 2.56226C14.1318 1.74706 13.0932 1.1919 11.9625 0.966986C10.8317 0.742073 9.65973 0.857506 8.59462 1.29869C7.52951 1.73987 6.61914 2.48699 5.97865 3.44556C5.33815 4.40414 4.99628 5.53111 4.99628 6.68398C4.99628 8.22992 5.61041 9.71255 6.70356 10.8057C7.79671 11.8988 9.27933 12.513 10.8253 12.513ZM10.8253 14.1784C7.21234 14.1784 0 16.4101 0 20.8401V24.171H21.6506V20.8401C21.6506 16.4101 14.4382 14.1784 10.8253 14.1784Z" fill="#45C8F3"/>
</svg>
